<?xml version="1.0" encoding="utf-8"?>
<!-- Generator: Adobe Illustrator 23.0.1, SVG Export Plug-In . SVG Version: 6.00 Build 0)  -->
<svg version="1.1" id="Layer_1" xmlns="http://www.w3.org/2000/svg" xmlns:xlink="http://www.w3.org/1999/xlink" x="0px" y="0px"
	 viewBox="0 0 160 75" style="enable-background:new 0 0 160 75;" xml:space="preserve">
<style type="text/css">
	.st0{fill:#66C1D3;}
	.st1{fill:#FFFFFF;}
</style>
<path class="st0" d="M12,0h136c6.627,0,12,5.373,12,12v51c0,6.627-5.373,12-12,12H12C5.373,75,0,69.627,0,63V12
	C0,5.373,5.373,0,12,0z"/>
<g>
	<path class="st1" d="M42.069,22.826h9.918c1.756,0,3.403,0.354,4.942,1.061s2.884,1.647,4.036,2.821
		c1.151,1.175,2.058,2.543,2.719,4.104c0.661,1.562,0.992,3.198,0.992,4.908c0,1.688-0.325,3.312-0.975,4.874
		c-0.65,1.562-1.551,2.936-2.702,4.121c-1.152,1.186-2.497,2.133-4.036,2.839c-1.539,0.707-3.198,1.061-4.977,1.061h-9.918V22.826z
		 M48.773,42.937h1.539c1.163,0,2.2-0.183,3.112-0.548c0.912-0.364,1.682-0.866,2.309-1.505c0.626-0.638,1.105-1.396,1.437-2.274
		c0.33-0.877,0.496-1.841,0.496-2.89c0-1.026-0.171-1.984-0.513-2.873c-0.342-0.89-0.827-1.653-1.454-2.292
		c-0.627-0.638-1.397-1.14-2.309-1.505c-0.912-0.364-1.938-0.547-3.078-0.547h-1.539V42.937z M67.961,24.331
		c0-0.479,0.091-0.929,0.274-1.351c0.182-0.422,0.433-0.792,0.752-1.112c0.319-0.318,0.689-0.569,1.111-0.752
		s0.873-0.273,1.351-0.273c0.479,0,0.929,0.091,1.351,0.273c0.422,0.183,0.792,0.434,1.112,0.752c0.319,0.32,0.569,0.69,0.752,1.112
		c0.182,0.422,0.273,0.872,0.273,1.351s-0.091,0.93-0.273,1.351c-0.183,0.423-0.434,0.793-0.752,1.112
		c-0.32,0.319-0.69,0.57-1.112,0.752c-0.422,0.183-0.872,0.273-1.351,0.273c-0.479,0-0.929-0.091-1.351-0.273
		c-0.422-0.182-0.792-0.433-1.111-0.752c-0.32-0.319-0.57-0.689-0.752-1.112C68.051,25.261,67.961,24.81,67.961,24.331z
		 M74.562,31.069v17.546h-6.19V31.069H74.562z M84.002,31.069l4.173,8.995l4.241-8.995h6.908l-9.132,17.546h-4.139l-9.029-17.546
		H84.002z M106.199,40.885c0,2.668,1.254,4.002,3.763,4.002c1.345,0,2.36-0.547,3.044-1.642h5.986
		c-1.209,4.014-4.23,6.02-9.064,6.02c-1.482,0-2.839-0.222-4.07-0.667c-1.231-0.444-2.286-1.077-3.164-1.898
		c-0.878-0.82-1.556-1.801-2.035-2.941c-0.479-1.14-0.718-2.416-0.718-3.83c0-1.459,0.228-2.776,0.684-3.95
		c0.456-1.175,1.106-2.172,1.95-2.993c0.843-0.821,1.864-1.454,3.061-1.898c1.197-0.444,2.549-0.667,4.054-0.667
		c1.481,0,2.815,0.223,4.001,0.667s2.189,1.089,3.011,1.933c0.82,0.844,1.447,1.876,1.881,3.096c0.433,1.22,0.649,2.594,0.649,4.121
		v0.649H106.199z M113.45,37.294c-0.205-0.866-0.627-1.562-1.266-2.086s-1.414-0.787-2.325-0.787c-0.958,0-1.739,0.251-2.343,0.752
		c-0.604,0.502-0.986,1.209-1.146,2.121H113.45z"/>
</g>
</svg>
