<?xml version="1.0" encoding="utf-8"?>
<!-- Generator: Adobe Illustrator 23.0.1, SVG Export Plug-In . SVG Version: 6.00 Build 0)  -->
<svg version="1.1" id="Layer_1" xmlns="http://www.w3.org/2000/svg" xmlns:xlink="http://www.w3.org/1999/xlink" x="0px" y="0px"
	 viewBox="0 0 160 75" style="enable-background:new 0 0 160 75;" xml:space="preserve">
<style type="text/css">
	.st0{fill:#66C1D3;}
	.st1{fill:#FFFFFF;}
</style>
<path class="st0" d="M12,0h136c6.627,0,12,5.373,12,12v51c0,6.627-5.373,12-12,12H12C5.373,75,0,69.627,0,63V12
	C0,5.373,5.373,0,12,0z"/>
<path class="st1" d="M49.458,30.078c-0.73-0.593-1.459-1.032-2.189-1.317c-0.73-0.285-1.437-0.428-2.121-0.428
	c-0.867,0-1.573,0.205-2.121,0.616c-0.547,0.411-0.821,0.946-0.821,1.607c0,0.457,0.137,0.833,0.411,1.129
	c0.273,0.296,0.633,0.553,1.077,0.77c0.445,0.217,0.946,0.405,1.505,0.564s1.112,0.331,1.659,0.513
	c2.189,0.73,3.791,1.705,4.805,2.924c1.015,1.22,1.522,2.811,1.522,4.771c0,1.323-0.222,2.52-0.667,3.592
	c-0.444,1.071-1.094,1.989-1.949,2.753c-0.855,0.765-1.904,1.357-3.147,1.779c-1.243,0.421-2.65,0.632-4.224,0.632
	c-3.261,0-6.282-0.969-9.064-2.907l2.873-5.403c1.003,0.889,1.995,1.551,2.976,1.983c0.98,0.434,1.95,0.649,2.907,0.649
	c1.095,0,1.91-0.25,2.446-0.752c0.535-0.502,0.804-1.071,0.804-1.71c0-0.388-0.068-0.724-0.206-1.01
	c-0.137-0.284-0.365-0.547-0.684-0.786s-0.735-0.462-1.248-0.667c-0.513-0.205-1.135-0.433-1.864-0.685
	c-0.867-0.273-1.716-0.575-2.548-0.906c-0.833-0.33-1.574-0.77-2.223-1.317c-0.65-0.547-1.175-1.236-1.574-2.069
	s-0.598-1.887-0.598-3.164c0-1.277,0.21-2.434,0.632-3.472c0.422-1.037,1.015-1.926,1.779-2.667
	c0.764-0.741,1.698-1.317,2.805-1.728c1.105-0.41,2.343-0.616,3.711-0.616c1.277,0,2.61,0.177,4.001,0.53
	c1.391,0.354,2.725,0.872,4.002,1.556L49.458,30.078z M64.062,36.884v12.382h-6.19V36.884h-2.052v-5.165h2.052v-5.267h6.19v5.267
	h3.523v5.165H64.062z M83.796,31.719h6.225v17.546h-6.225v-1.95c-1.323,1.665-3.112,2.497-5.37,2.497
	c-1.277,0-2.451-0.233-3.523-0.701c-1.072-0.467-2.006-1.123-2.805-1.967c-0.798-0.843-1.419-1.835-1.864-2.976
	c-0.445-1.14-0.667-2.382-0.667-3.728c0-1.254,0.216-2.446,0.65-3.575c0.433-1.129,1.037-2.115,1.812-2.958
	c0.775-0.843,1.699-1.51,2.771-2.001c1.072-0.49,2.257-0.735,3.557-0.735c2.189,0,4.001,0.764,5.438,2.292V31.719z M75.998,40.441
	c0,0.57,0.103,1.1,0.308,1.59c0.206,0.491,0.484,0.918,0.838,1.283c0.353,0.364,0.774,0.649,1.266,0.854
	c0.489,0.205,1.02,0.308,1.59,0.308c0.548,0,1.065-0.103,1.556-0.308c0.49-0.205,0.911-0.49,1.266-0.854
	c0.353-0.365,0.638-0.787,0.854-1.266c0.217-0.479,0.325-0.992,0.325-1.539c0-0.548-0.108-1.065-0.325-1.557
	c-0.217-0.49-0.502-0.917-0.854-1.283c-0.354-0.364-0.775-0.65-1.266-0.855c-0.491-0.205-1.008-0.308-1.556-0.308
	c-0.57,0-1.101,0.103-1.59,0.308c-0.491,0.205-0.913,0.491-1.266,0.855c-0.354,0.366-0.633,0.782-0.838,1.249
	C76.101,39.387,75.998,39.894,75.998,40.441z M94.227,31.719h6.191v2.873c0.661-1.049,1.471-1.853,2.428-2.412
	c0.958-0.558,2.075-0.838,3.353-0.838c0.159,0,0.336,0,0.53,0c0.193,0,0.415,0.023,0.667,0.068v5.917
	c-0.821-0.411-1.711-0.616-2.668-0.616c-1.437,0-2.515,0.427-3.232,1.282c-0.719,0.855-1.077,2.104-1.077,3.746v7.524h-6.191V31.719
	z M117.724,36.884v12.382h-6.19V36.884h-2.052v-5.165h2.052v-5.267h6.19v5.267h3.523v5.165H117.724z"/>
</svg>
