<?xml version="1.0" encoding="utf-8"?>
<!-- Generator: Adobe Illustrator 23.0.1, SVG Export Plug-In . SVG Version: 6.00 Build 0)  -->
<svg version="1.1" id="Layer_1" xmlns="http://www.w3.org/2000/svg" xmlns:xlink="http://www.w3.org/1999/xlink" x="0px" y="0px"
	 viewBox="0 0 372.806 165.814" style="enable-background:new 0 0 372.806 165.814;" xml:space="preserve">
<style type="text/css">
	.st0{fill:none;stroke:#BAE9F1;stroke-width:14;stroke-linecap:round;stroke-miterlimit:10;}
</style>
<path class="st0" d="M282.711,7c-30.119,0-56.495,16.024-71.068,40.012c-14.027-10.317-31.316-16.452-50.038-16.56l0-0.01
	c-0.093,0-0.185,0.004-0.278,0.005c-0.074,0-0.148-0.005-0.222-0.005v0.008c-30.109,0.173-56.508,15.936-71.578,39.618
	c-8.061-4.608-17.388-7.254-27.338-7.254C31.708,62.814,7,87.522,7,118.002c0,16.172,6.957,30.718,18.039,40.812h134.757h6.5h68.59
	h1.105h93.438c21.955-14.955,36.376-40.151,36.376-68.719C365.806,44.203,328.603,7,282.711,7z"/>
</svg>
