<?xml version="1.0" encoding="utf-8"?>
<!-- Generator: Adobe Illustrator 23.0.1, SVG Export Plug-In . SVG Version: 6.00 Build 0)  -->
<svg version="1.1" id="Layer_1" xmlns="http://www.w3.org/2000/svg" xmlns:xlink="http://www.w3.org/1999/xlink" x="0px" y="0px"
	 viewBox="0 0 459 152.369" style="enable-background:new 0 0 459 152.369;" xml:space="preserve">
<style type="text/css">
	.st0{opacity:0.4;fill:#66C1D3;}
	.st1{fill:#66C1D3;}
</style>
<path class="st0" d="M51.534,127.398c0,0,17.858-0.486,16.702-0.486c1.157,2.076,4.626,3.177,4.666,5.289
	c-0.004,0.314-0.023,0.625-0.049,0.932c0.002,0.537,0.293,0.874,0.728,1.111c0.218,0.118,0.471,0.212,0.743,0.292
	c2.008-0.295,3.164,0.743,2.633,2.425c-0.21,0.174-0.447,0.31-0.703,0.42c-1.534,0.661-3.765,0.388-4.882,1.629
	c-0.116,0.254-0.237,0.504-0.366,0.749c-0.423,0.81-0.916,1.578-1.478,2.304c-0.188,0.242-0.383,0.48-0.586,0.712
	c-5.333,2.883-11.116,0.807-13.799,6.663c-0.353,0.075-0.706,0.146-1.058,0.215c-9.522,1.851-18.955,1.483-28.064,2.347
	c-0.372,0.008-0.742,0.014-1.111,0.02c-8.429,0.125-16.814-0.135-24.909-1.173c2.313,0,4.626-3.114,8.111-1.839
	c0.251-0.039,0.491-0.099,0.717-0.193c0.679-0.283,1.234-0.875,1.581-2.12c-3.47,1.038,2.19-6.965,2.19-6.965s0-1.242,0-2.928
	c0.028-0.187,0.048-0.38,0.078-0.577c1.201-0.947,1.201-3.023,0.009-3.786c-0.022-0.21-0.038-0.419-0.087-0.623
	c0-0.188,0-0.373,0-0.554c-0.004-0.181-0.013-0.363-0.061-0.561c0.184-0.612,0.184-1.65-0.031-2.474
	c0.091-0.315,2.294-0.52,2.294-0.52s17.416-0.732,17.416,0.306c2.313,1.038-0.991,3.114,1.074,4.099
	c0.134,0.132,0.286,0.289,0.458,0.449c0.69,0.642-0.209,2.717-1.057,4.786c0,0.351,0,0.675,0,0.964c0,0.868,0,1.42,0,1.42h7.914
	c3.207,0,5.823-0.585,7.851-1.756c0.225-0.13,0.443-0.268,0.664-0.411c1.767-0.21,2.924-1.248,3.953-3.801
	c-0.064-0.238-0.159-0.466-0.303-0.678c-0.143-0.212-0.335-0.408-0.59-0.584c0.006-0.277,0.038-0.563-0.068-0.904
	c-1.225-1.509-1.336-1.509-2.493-3.585c1.157,0,0.111,0,1.394-0.605L51.534,127.398z M130.989,128.41
	c-0.131,0.293-0.266,0.582-0.406,0.865s-0.283,0.561-0.222,0.833c2.111,1.02,3.168,1.02,5.283,1.02
	c-2.115,4.152-7.402,1.038-9.163,3.732c-0.18,0.169-0.381,0.334-0.661,0.496c-2.615-0.05-4.427,1.317-6.291,2.575
	c-0.233,0.157-0.467,0.313-0.7,0.464c-4.335,3.114-8.564,0-12.635-0.36c-0.17-0.063-0.338-0.128-0.503-0.194
	c-1.772-0.484-1.772-3.598-3.887-3.598c1.057,0,1.057,0,1.576-1c0.227-0.086,0.463-0.168,0.705-0.246
	c0.725-0.234,2.907-0.673,3.213-0.71c-0.1,0.012-0.446-0.494-0.495-0.568c0.611,0.537,1.66-0.4,1.078-0.751
	c-3.381-2.038-8.569,0.731-11.21-2.547c-0.112-0.24-0.205-0.478-0.304-0.712c0,0-16.845,0-19.908,0c-0.306,0-0.475,0-0.475,0
	c0.147,0.448,0.245,0.862,0.335,1.244c0.045,0.191,0.089,0.373,0.139,0.551c-0.031,1.49,2.632,1.614,2.182,3.44
	c-0.031,0.166-0.09,0.346-0.138,0.542c1.095,1.795,4.267,0.757,5.325,1.795c1.057,2.076-2.115,1.038-2.177,3.127
	c0.143,0.246,0.341,0.49,0.542,0.73c1.635,0.295,1.635,3.409,3.708,3.765c0.223,0.193,0.45,0.384,0.795,0.594
	c3.6,2.24,8.675,0.754,12.012,3.341c-1.523,0.612-3.118,1.235-4.381,2.387c4.982,2.001,11.05,2.765,16.418,3.063
	c0.335,0.019,0.671,0.034,1.007,0.046c0.674,0.025,1.353,0.037,2.04,0.037c0.662,0,1.317-0.011,1.966-0.033
	c0.324-0.011,0.647-0.025,0.968-0.041c1.821-0.362,3.65-0.827,5.484-1.325c0.306-0.083,0.611-0.167,0.918-0.251
	c6.171-0.909,11.459-2.985,17.804-2.985c-1.057,0-1.057,0-1.435-1.243c0.052-0.163,0.098-0.341,0.133-0.534
	c0.072-0.386,0.104-0.834,0.091-1.355c0.209-0.175,0.442-0.353,0.673-0.533c1.384-1.082,2.663-2.259,3.837-3.529
	c0.204-0.228,0.404-0.459,0.367-0.693c-1.552-0.416-2.61-2.492-4.725-1.454c2.115-3.114,6.345-2.076,8.166-3.089
	c0.267-0.237,0.408-0.476,0.618-0.716c1.791-1.385,4.963-0.347,4.963-3.461c-1.057,1.038-2.115-1.038-2.897-1.041
	c0.072-0.26,0.167-0.521,0.26-0.784c0.185-0.526,0.358-1.057,0.519-1.595h-20.225C131.181,127.942,131.091,128.179,130.989,128.41z
	 M213.525,127.707h-47.97c0,0-0.369,1.242-0.87,2.928c-0.056,0.187-0.113,0.38-0.172,0.577c-1.102,0.952-1.102,1.99-1.166,3.924
	c-0.075,0.255-0.15,0.507-0.223,0.753c-0.052,0.164-0.101,0.325-0.15,0.484c-0.305-0.028-0.458,0.217-0.547,0.646
	c-0.044,0.214-0.011,0.475,0.129,0.769c1.902-0.434-0.193,2.68,1.902,1.642c-4.19,1.038-8.38-3.114-11.133,1.803
	c0,0.165,0,0.34,0,0.524s1.047,1.126,1.047,2.313c0,0.306-1.047,0.618-1.047,0.933c0,0.21,0,0.421,0,0.631
	c-0.097,0.265-0.17,0.464-0.219,0.635c-0.047,0.171-0.069,0.314,0.071,0.459c1.854,1.004,4.996-0.033,7.091,2.042
	c-2.095,2.076-2.095,3.114,0.246,2.766c0.208,0,0.419,0,0.632,0c9.183,0,23.175,0,23.175,0s0-2.545,0-5.272
	c-0.03-0.21-0.055-0.421-0.156-0.631c-1.474-1.026-1.687-1.799-1.406-2.585c0.07-0.196,0.172-0.394,0.321-0.596
	c1.279-1.986-3.958-1.986-6.932-5.063c-0.097-0.172-0.119-0.351-0.274-0.535c0.092-0.291,0.188-0.596,0.276-0.91
	c-0.17-1.706-2.265-3.782,1.335-4.866c0.264-0.299,0.383-0.587,0.48-0.857c0.427-1.354,0.725-2.298,0.725-2.298h18.198
	c0,0,0.297,1.046,0.714,2.515c0.079,0.294,0.162,0.605,0.208,0.928c1.214,0.797,2.261,1.835,1.275,4.123
	c0.003,0.173,0.047,0.34,0.094,0.505c0.14,0.494,0.274,0.965,0.396,1.395c0.098,0.344,0.188,0.663,0.271,0.947
	c-2.917,2.131-8.154-0.983-9.992,3.949c-0.124,0.205-0.204,0.414-0.243,0.622c-0.199,1.044,0.585,2.092,1.583,2.727
	c0.035,0.211,0.047,0.422,0.062,0.631c0.435,1.468,0.435,1.468,0.004,2.866c-0.002,0.282-0.004,0.548-0.004,0.792
	c0,0.977,0,1.613,0,1.613h34.488c0,0,0-0.241,0-0.654c0-0.207,0.009-0.456,0.177-0.74c0.337-1.372,1.384-1.372,2.432-1.372
	c1.047-2.076-2.095-1.038-2.512-3.137c-0.067-0.211-0.08-0.422-0.097-0.631c0-0.341-0.002-0.679-0.013-1.009
	c0.198-0.933-0.415-1.516-1.204-1.99c-0.263-0.158-0.545-0.304-0.823-0.446c-0.589-0.051-2.684-1.089-1.636-2.127
	c0,0,1.047,0,2.095,0c-1.047,0-2.095,0-3.402,0c-0.264,0-0.526,0-0.788,0c-1.309,0-2.619,0-4.19,0c0,0,1.047,0,1.093-0.475
	c0.177-0.109,0.122-0.354,0.037-0.643c-0.127-0.398-0.275-0.862-0.437-1.369c-0.054-0.169-0.11-0.343-0.166-0.521
	c-2.621-2.181-0.526-4.257-1.804-5.69c-0.063-0.176-0.12-0.345-0.176-0.508C213.858,128.751,213.525,127.707,213.525,127.707z
	 M255.702,127.707h-18.126c0,0,0,1.559,0,3.555c0,0.181,0,0.366,0,0.555c0.03,0.347,0.056,0.607,0.09,0.825
	c0.03,1.599,2.106,0.561,3.144,1.599c0.908,1.816-1.362,2.044-2.646,2.977c-0.183,0.133-0.347,0.281-0.477,0.45
	c-2.067,5.914-9.333-2.39-11.207,3.93c0.123,0.161,0.202,0.375,0.276,0.608c0.218,0.7,0.393,1.582,1.263,1.787
	c0.01,0.331,0.011,0.669,0.011,1.009c0.007,0.21,0.013,0.421,0.023,0.631c0.302,1.061,3.416,3.137,0.081,4.509
	c-0.1,0.284-0.104,0.534-0.104,0.74c0,0.413,0,0.654,0,0.654h36.389c0,0,0.038-0.217,0.712-0.593
	c0.443-1.63,3.473-0.285,4.522-1.263c0.35-0.326,0.48-0.91,0.105-2.17c-2.999-0.816-6.113-0.816-8.189-2.892
	c-2.076-2.076,4.152-1.038,2.559-3.692c-0.161-0.153-0.326-0.313-0.455-0.477c-0.259-0.329-6.256-1.02-9.37-1.02
	c0,0,1.038-1.038,1.177-1.119c0.167-0.289,0.221-0.614,0.226-0.964c0.855-1.035,1.023-1.811,0.893-2.555
	c-0.033-0.186-0.079-0.37-0.094-0.564c0.911-2.064,1.949-3.102-0.803-4.48c-0.001-0.304-0.001-0.584-0.001-0.833
	C255.702,128.171,255.702,127.707,255.702,127.707z M355.893,127.707c-0.086,0.276-0.153,0.573-0.247,0.84
	c2.455,1.542,4.531,1.542,6.607,2.58c-2.595,1.73-5.911,0.577-8.3,1.725c-0.239,0.115-0.469,0.253-0.69,0.419
	c-1.238,1.088-2.563,2.052-3.929,2.876c-0.273,0.165-0.548,0.324-0.824,0.477c-4.941,3.845-12.207,2.807-18.435,2.807
	c0,0,0-1.038-0.282-1.176c-0.176-0.288-0.374-0.524-0.592-0.718c-1.741-1.552-4.731-0.39-6.392-1.22
	c2.669-1.779,3.898-2.796,7.4-3.964c0.292-0.097,0.584-0.196,0.878-0.296c1.975,0.108-0.101-0.93,0.937-1.968
	c-0.173-0.173-0.375-0.317-0.595-0.44c-1.102-0.616-2.665-0.71-3.398-1.275c-0.001-0.421-0.001-0.666-0.001-0.666h-18.033
	c0,0,0,0.206,0,0.565c0.23,2.856,4.382,0.78,4.382,2.856c-0.649,1.297-2.108,0.973-3.422,1.17c-0.264,0.04-0.523,0.101-0.774,0.201
	c-0.994,1.743-1.906,1.743-0.868,3.819c1.038,1.038,3.114,0,2.893,2.568c-0.009,0.188-0.009,0.339-0.009,0.462
	c0,0.247,0,0.385,0,0.385s-8.493,1.694-16.79,2.076c-8.296,0.382-3.919-2.076-3.919-2.076s-0.353-0.661-0.893-1.672
	c-0.135-0.253-0.284-0.528-0.506-0.82c-0.498-1.961-2.574-0.923-3.612-1.961c-1.038-2.076,2.076-1.038,1.957-2.793
	c-0.006-0.21-0.024-0.42-0.058-0.626c-0.172-1.031-1.854-1.959-3.402-2.274c-0.156-0.282-0.294-0.54-0.417-0.769
	c-0.367-0.687-0.593-1.11-0.593-1.11h-18.05c0,0,0.199,0.386,0.546,1.059c0.087,0.168,0.183,0.355,0.351,0.563
	c1.956,0.76,4.032,0.76,6.108,1.798c2.076,2.076-2.013,1.038-2.252,3.267c-0.002,0.187,0.04,0.368,0.08,0.547
	c0.817,1.583,1.701,3.297,2.58,5.002c0.095,0.184,0.19,0.367,0.284,0.551c0.409,2.052-2.705,2.052-2.705,3.09
	c2.076,3.114,7.266,1.038,9.252,5.15c0.011,0.139,0.003,0.293-0.029,0.461c-0.095,0.507-0.399,1.155-0.998,1.998
	c0.116,0.226,0.179,0.347,0.179,0.347h16.095h5.075c0,0,2.306-4.663,8.516-2.076c6.21,2.587,14.479,2.076,22.721,2.076
	c0,0,30.7-0.379,26.067-2.836c-4.632-2.457,4.703-2.998,6.32-4.208c0.231-0.173,0.459-0.349,0.684-0.528
	c2.648-0.385,9.6-2.807,9.49-2.977c1.462-2.598-7.879-0.522-6.159-4.354c0.139-0.244,0.29-0.465,0.452-0.667
	c1.457-1.819,3.78-2.088,6.066-3.166c0.218-0.16,0.439-0.323,0.67-0.467c0.693-0.432-0.605-1.21-0.598-3.102
	c0.052-0.251,0.124-0.504,0.194-0.758c0.07-0.255,0.137-0.511,0.201-0.77H355.893z"/>
<path class="st1" d="M61.024,61.708c7.181-5.982,10.773-14.925,10.773-26.829c0-11.719-3.499-20.269-10.496-25.652
	c-6.998-5.382-17.617-8.074-31.857-8.074H3.007v8.674h9.32v52.18h-9.32v8.674h25.975C43.161,70.681,53.842,67.69,61.024,61.708z
	 M22.846,9.827h6.69c7.382,0,13.325,0.916,17.832,2.745c4.505,1.83,7.797,4.606,9.873,8.327c2.076,3.722,3.114,8.536,3.114,14.441
	c0,9.197-2.476,15.94-7.428,20.231c-4.952,4.291-12.78,6.436-23.483,6.436h-6.598V9.827z M102.154,70.681H76.548v-8.674h7.52V9.827
	h-7.52V1.153h25.605v8.674h-7.566v52.18h7.566V70.681z M119.902,9.827h-8.581V1.153h27.405v8.674h-8.028l17.763,47.244
	l17.209-47.244h-8.028V1.153h26.529v8.674h-8.304L152.89,71.42h-9.643L119.902,9.827z M217.898,70.681h-25.605v-8.674h7.52V9.827
	h-7.52V1.153h25.605v8.674h-7.566v52.18h7.566V70.681z M255.531,70.681h-28.466v-8.674h9.92V9.827h-9.92V1.153h23.714l30.542,54.026
	V9.827h-9.919V1.153h28.512v8.674h-10.196V71.42h-10.796l-33.357-59.424v50.012h9.965V70.681z M298.697,35.618
	c0-6.859,1.515-12.995,4.545-18.409c3.029-5.413,7.204-9.634,12.526-12.664C321.088,1.515,327.117,0,333.853,0
	c9.535,0,17.67,2.938,24.406,8.812V1.153h8.858v22.838h-8.858c-2.03-4.46-5.237-8.028-9.62-10.704
	c-4.383-2.676-8.989-4.014-13.818-4.014c-4.798,0-9.074,1.13-12.826,3.391c-3.753,2.26-6.667,5.375-8.743,9.343
	c-2.076,3.968-3.114,8.474-3.114,13.518c0,5.29,1.091,9.981,3.276,14.071c2.183,4.091,5.22,7.275,9.112,9.55
	c3.89,2.277,8.328,3.414,13.31,3.414c3.783,0,7.297-0.692,10.542-2.076c3.245-1.384,5.935-3.352,8.074-5.905
	c2.138-2.553,3.468-5.475,3.991-8.766h-12.78v-8.766h25.329v2.261c0,6.613-1.507,12.381-4.521,17.301
	c-3.015,4.922-7.174,8.69-12.48,11.304c-5.306,2.614-11.265,3.922-17.878,3.922c-7.536,0-14.14-1.514-19.815-4.544
	c-5.675-3.029-10.028-7.267-13.057-12.711C300.211,49.135,298.697,42.815,298.697,35.618z M459,80.814H337.476h-38.619H265.84
	h-40.852h-99.861h-22.418H37.868H10.572H4.616v12.16h5.956h2.88v34.667h18.573v-6.45h4.703c4.908,0,8.368,0.76,10.379,2.28
	c1.296,0.98,2.169,2.374,2.629,4.17h19.129c-0.467-2.5-1.403-4.711-2.829-6.617c-2.122-2.834-5.352-5.059-9.691-6.674
	c6.746-2.913,10.118-7.838,10.118-14.773c0-2.444-0.364-4.64-1.071-6.603h16.676c-1.1,1.322-2.11,2.726-3.011,4.228
	c-3.325,5.542-4.988,11.939-4.988,19.191c0,4.012,0.536,7.755,1.568,11.248h20.583c-1.367-3.391-2.058-7.169-2.058-11.343
	c0-4.339,0.8-8.289,2.399-11.852c1.599-3.563,3.887-6.397,6.864-8.503c2.251-1.593,4.804-2.581,7.654-2.969h5.69
	c2.853,0.388,5.412,1.376,7.676,2.969c2.992,2.106,5.28,4.94,6.864,8.503c1.583,3.563,2.375,7.513,2.375,11.852
	c0,4.174-0.672,7.952-1.998,11.343h20.424c1.004-3.493,1.525-7.236,1.525-11.248c0-7.188-1.655-13.569-4.964-19.143
	c-0.903-1.521-1.915-2.94-3.019-4.275h29.738l-10.209,34.667h48.83l-10.975-34.667h21.95h9.833v34.667h18.669v-6.546h8.171
	l3.377,6.546h18.586l-4.814-9.016c4.147-1.868,7.244-4.29,9.285-7.268c2.043-2.976,3.065-6.65,3.065-11.02
	c0-2.74-0.446-5.183-1.285-7.363h8.981h10.878v34.667h18.573V92.974h6.318c7.093,0,12.469,2.012,16.127,6.033
	c3.657,4.022,5.487,9.976,5.487,17.861c0,4.091-0.498,7.663-1.441,10.773h19.776c0.756-3.116,1.141-6.498,1.141-10.156
	c0-8.423-1.67-15.383-5.011-20.877c-0.789-1.297-1.649-2.503-2.57-3.634H459V80.814z M44.875,94.661
	c2.01,1.124,3.016,3.08,3.016,5.866c0,3.135-0.839,5.352-2.518,6.65c-1.679,1.299-4.212,1.948-7.6,1.948h-5.748V92.974h4.37
	C40.037,92.974,42.863,93.537,44.875,94.661z M181.71,117.486l6.413-21.614l6.033,21.614H181.71z M269.071,95.017
	c1.742,1.362,2.613,3.405,2.613,6.128c0,5.637-3.785,8.455-11.354,8.455h-6.84V92.974h8.455
	C264.954,92.974,267.328,93.656,269.071,95.017z"/>
</svg>
