<?xml version="1.0" encoding="utf-8"?>
<!-- Generator: Adobe Illustrator 23.0.1, SVG Export Plug-In . SVG Version: 6.00 Build 0)  -->
<svg version="1.1" id="Layer_1" xmlns="http://www.w3.org/2000/svg" xmlns:xlink="http://www.w3.org/1999/xlink" x="0px" y="0px"
	 viewBox="0 0 634.939 652.348" style="enable-background:new 0 0 634.939 652.348;" xml:space="preserve">
<style type="text/css">
	.st0{fill:none;stroke:#BAE9F1;stroke-width:12;stroke-linecap:round;stroke-miterlimit:10;}
	.st1{fill:none;stroke:#BAE9F1;stroke-width:14;stroke-linecap:round;stroke-miterlimit:10;}
</style>
<g>
	<path class="st0" d="M269.521,321.06L244.236,69.213C244.236,34.301,215.934,6,181.023,6c-26.552,0-45.855,16.559-58.643,39.57
		S23.622,646.348,23.622,646.348"/>
	<line class="st1" x1="100.742" y1="88.809" x2="512.891" y2="88.809"/>
	<path class="st0" d="M332.734,645.716l-25.285-260.438c0-34.912-28.301-63.213-63.213-63.213c-26.552,0-45.855,16.559-58.643,39.57
		c-12.788,23.011-35.544,284.713-35.544,284.713"/>
	<line class="st1" x1="161.427" y1="412.46" x2="627.939" y2="412.46"/>
	<line class="st0" x1="71.481" y1="153.602" x2="93.294" y2="153.602"/>
	<line class="st0" x1="62.126" y1="218.396" x2="83.939" y2="218.396"/>
	<line class="st0" x1="52.772" y1="283.189" x2="74.585" y2="283.189"/>
	<line class="st0" x1="43.417" y1="347.982" x2="65.231" y2="347.982"/>
	<line class="st0" x1="34.063" y1="412.776" x2="55.876" y2="412.776"/>
	<line class="st0" x1="24.709" y1="477.569" x2="46.522" y2="477.569"/>
	<line class="st0" x1="15.354" y1="542.362" x2="37.168" y2="542.362"/>
	<line class="st0" x1="6" y1="607.156" x2="27.813" y2="607.156"/>
	<line class="st0" x1="142.285" y1="477.569" x2="164.098" y2="477.569"/>
	<line class="st0" x1="132.931" y1="542.362" x2="154.744" y2="542.362"/>
	<line class="st0" x1="123.576" y1="607.156" x2="145.389" y2="607.156"/>
</g>
</svg>
